<svg width="784" height="220" viewBox="0 0 784 220" fill="none" xmlns="http://www.w3.org/2000/svg">
<g filter="url(#filter0_d_15_1189)">
<path d="M41.5954 0H62.3931V20.7H41.5954V0ZM20.7977 0H41.5954V20.7H20.7977V0ZM20.7977 20.7H41.5954V41.4H20.7977V20.7ZM41.5954 20.7H62.3931V41.4H41.5954V20.7ZM62.3931 20.7H83.1909V41.4H62.3931V20.7ZM62.3931 0H83.1909V20.7H62.3931V0ZM83.1909 0H103.989V20.7H83.1909V0ZM103.989 0H124.786V20.7H103.989V0ZM103.989 20.7H124.786V41.4H103.989V20.7ZM83.1909 20.7H103.989V41.4H83.1909V20.7ZM103.989 41.4H124.786V62.1H103.989V41.4ZM124.786 20.7H145.584V41.4H124.786V20.7ZM124.786 41.4H145.584V62.1H124.786V41.4ZM124.786 144.9H145.584V165.6H124.786V144.9ZM124.786 165.6H145.584V186.3H124.786V165.6ZM103.989 165.6H124.786V186.3H103.989V165.6ZM103.989 144.9H124.786V165.6H103.989V144.9ZM83.1909 165.6H103.989V186.3H83.1909V165.6ZM103.989 186.3H124.786V207H103.989V186.3ZM83.1909 186.3H103.989V207H83.1909V186.3ZM62.3931 186.3H83.1909V207H62.3931V186.3ZM62.3931 165.6H83.1909V186.3H62.3931V165.6ZM41.5954 186.3H62.3931V207H41.5954V186.3ZM20.7977 186.3H41.5954V207H20.7977V186.3ZM20.7977 165.6H41.5954V186.3H20.7977V165.6ZM41.5954 165.6H62.3931V186.3H41.5954V165.6ZM41.5954 144.9H62.3931V165.6H41.5954V144.9ZM20.7977 144.9H41.5954V165.6H20.7977V144.9ZM0 165.6H20.7977V186.3H0V165.6ZM0 144.9H20.7977V165.6H0V144.9ZM0 124.2H20.7977V144.9H0V124.2ZM0 103.5H20.7977V124.2H0V103.5ZM0 82.8H20.7977V103.5H0V82.8ZM0 62.1H20.7977V82.8H0V62.1ZM0 41.4H20.7977V62.1H0V41.4ZM20.7977 41.4H41.5954V62.1H20.7977V41.4ZM0 20.7H20.7977V41.4H0V20.7ZM41.5954 41.4H62.3931V62.1H41.5954V41.4ZM20.7977 62.1H41.5954V82.8H20.7977V62.1ZM20.7977 82.8H41.5954V103.5H20.7977V82.8ZM20.7977 103.5H41.5954V124.2H20.7977V103.5ZM20.7977 124.2H41.5954V144.9H20.7977V124.2Z" fill="#B4B4B4"/>
<path d="M300.373 175.95H279.575V155.25H300.373V175.95ZM300.373 196.65H279.575V175.95H300.373V196.65ZM279.575 196.65H258.778V175.95H279.575V196.65ZM279.575 175.95H258.778V155.25H279.575V175.95ZM279.575 155.25H258.778V134.55H279.575V155.25ZM279.575 134.55H258.778V113.85H279.575V134.55ZM279.575 113.85H258.778V93.15H279.575V113.85ZM300.373 113.85H279.575V93.15H300.373V113.85ZM300.373 134.55H279.575V113.85H300.373V134.55ZM300.373 155.25H279.575V134.55H300.373V155.25ZM300.373 93.15H279.575V72.45H300.373V93.15ZM279.575 93.15H258.778V72.45H279.575V93.15ZM279.575 72.45H258.778V51.75H279.575V72.45ZM279.575 51.75H258.778V31.05H279.575V51.75ZM300.373 51.75H279.575V31.05H300.373V51.75ZM300.373 72.45H279.575V51.75H300.373V72.45ZM196.385 51.75H175.587V31.05H196.385V51.75ZM175.587 51.75H154.789V31.05H175.587V51.75ZM175.587 72.45H154.789V51.75H175.587V72.45ZM175.587 93.15H154.789V72.45H175.587V93.15ZM175.587 113.85H154.789V93.15H175.587V113.85ZM175.587 134.55H154.789V113.85H175.587V134.55ZM175.587 155.25H154.789V134.55H175.587V155.25ZM175.587 175.95H154.789V155.25H175.587V175.95ZM196.385 134.55H175.587V113.85H196.385V134.55ZM196.385 113.85H175.587V93.15H196.385V113.85ZM196.385 93.15H175.587V72.45H196.385V93.15ZM196.385 72.45H175.587V51.75H196.385V72.45ZM196.385 155.25H175.587V134.55H196.385V155.25ZM258.778 175.95H237.98V155.25H258.778V175.95ZM237.98 175.95H217.182V155.25H237.98V175.95ZM217.182 175.95H196.385V155.25H217.182V175.95ZM217.182 196.65H196.385V175.95H217.182V196.65ZM196.385 196.65H175.587V175.95H196.385V196.65ZM196.385 175.95H175.587V155.25H196.385V175.95ZM237.98 196.65H217.182V175.95H237.98V196.65Z" fill="#B4B4B4"/>
<path d="M309.578 62.1H330.376V82.8H309.578V62.1ZM309.578 41.4H330.376V62.1H309.578V41.4ZM330.376 41.4H351.174V62.1H330.376V41.4ZM330.376 62.1H351.174V82.8H330.376V62.1ZM330.376 82.8H351.174V103.5H330.376V82.8ZM330.376 103.5H351.174V124.2H330.376V103.5ZM330.376 124.2H351.174V144.9H330.376V124.2ZM309.578 124.2H330.376V144.9H309.578V124.2ZM309.578 103.5H330.376V124.2H309.578V103.5ZM309.578 82.8H330.376V103.5H309.578V82.8ZM309.578 144.9H330.376V165.6H309.578V144.9ZM330.376 144.9H351.174V165.6H330.376V144.9ZM330.376 165.6H351.174V186.3H330.376V165.6ZM330.376 186.3H351.174V207H330.376V186.3ZM309.578 186.3H330.376V207H309.578V186.3ZM309.578 165.6H330.376V186.3H309.578V165.6ZM351.174 62.1H371.971V82.8H351.174V62.1ZM371.971 62.1H392.769V82.8H371.971V62.1ZM392.769 62.1H413.567V82.8H392.769V62.1ZM392.769 41.4H413.567V62.1H392.769V41.4ZM371.971 41.4H392.769V62.1H371.971V41.4ZM351.174 82.8H371.971V103.5H351.174V82.8ZM413.567 62.1H434.365V82.8H413.567V62.1ZM392.769 82.8H413.567V103.5H392.769V82.8Z" fill="#B4B4B4"/>
<path d="M443.516 2.40001H485.111V43.8H443.516V2.40001ZM443.516 64.5H485.111V209.4H443.516V64.5Z" fill="#B4B4B4"/>
<path d="M640.009 186.3H619.211V165.6H640.009V186.3ZM640.009 207H619.211V186.3H640.009V207ZM619.211 207H598.413V186.3H619.211V207ZM619.211 186.3H598.413V165.6H619.211V186.3ZM619.211 165.6H598.413V144.9H619.211V165.6ZM619.211 144.9H598.413V124.2H619.211V144.9ZM619.211 124.2H598.413V103.5H619.211V124.2ZM640.009 124.2H619.211V103.5H640.009V124.2ZM640.009 144.9H619.211V124.2H640.009V144.9ZM640.009 165.6H619.211V144.9H640.009V165.6ZM640.009 103.5H619.211V82.8H640.009V103.5ZM619.211 103.5H598.413V82.8H619.211V103.5ZM619.211 82.8H598.413V62.1H619.211V82.8ZM619.211 62.1H598.413V41.4H619.211V62.1ZM640.009 62.1H619.211V41.4H640.009V62.1ZM640.009 82.8H619.211V62.1H640.009V82.8ZM536.02 62.1H515.222V41.4H536.02V62.1ZM515.222 62.1H494.425V41.4H515.222V62.1ZM515.222 82.8H494.425V62.1H515.222V82.8ZM515.222 103.5H494.425V82.8H515.222V103.5ZM515.222 124.2H494.425V103.5H515.222V124.2ZM515.222 144.9H494.425V124.2H515.222V144.9ZM515.222 165.6H494.425V144.9H515.222V165.6ZM515.222 186.3H494.425V165.6H515.222V186.3ZM536.02 144.9H515.222V124.2H536.02V144.9ZM536.02 124.2H515.222V103.5H536.02V124.2ZM536.02 103.5H515.222V82.8H536.02V103.5ZM536.02 82.8H515.222V62.1H536.02V82.8ZM536.02 165.6H515.222V144.9H536.02V165.6ZM598.413 186.3H577.615V165.6H598.413V186.3ZM577.615 186.3H556.818V165.6H577.615V186.3ZM556.818 186.3H536.02V165.6H556.818V186.3ZM556.818 207H536.02V186.3H556.818V207ZM536.02 207H515.222V186.3H536.02V207ZM536.02 186.3H515.222V165.6H536.02V186.3ZM577.615 207H556.818V186.3H577.615V207Z" fill="#B4B4B4"/>
<path d="M649.214 62.1H670.011V82.8H649.214V62.1ZM670.011 82.8H690.809V103.5H670.011V82.8ZM649.214 82.8H670.011V103.5H649.214V82.8ZM649.214 103.5H670.011V124.2H649.214V103.5ZM670.011 103.5H690.809V124.2H670.011V103.5ZM670.011 124.2H690.809V144.9H670.011V124.2ZM690.809 124.2H711.607V144.9H690.809V124.2ZM711.607 124.2H732.405V144.9H711.607V124.2ZM732.405 103.5H753.202V124.2H732.405V103.5ZM711.607 103.5H732.405V124.2H711.607V103.5ZM690.809 103.5H711.607V124.2H690.809V103.5ZM732.405 124.2H753.202V144.9H732.405V124.2ZM753.202 124.2H774V144.9H753.202V124.2ZM753.202 144.9H774V165.6H753.202V144.9ZM732.405 144.9H753.202V165.6H732.405V144.9ZM732.405 165.6H753.202V186.3H732.405V165.6ZM753.202 165.6H774V186.3H753.202V165.6ZM732.405 186.3H753.202V207H732.405V186.3ZM711.607 165.6H732.405V186.3H711.607V165.6ZM690.809 165.6H711.607V186.3H690.809V165.6ZM670.011 165.6H690.809V186.3H670.011V165.6ZM649.214 165.6H670.011V186.3H649.214V165.6ZM670.011 186.3H690.809V207H670.011V186.3ZM690.809 186.3H711.607V207H690.809V186.3ZM711.607 186.3H732.405V207H711.607V186.3ZM753.202 62.1H774V82.8H753.202V62.1ZM732.405 62.1H753.202V82.8H732.405V62.1ZM732.405 41.4H753.202V62.1H732.405V41.4ZM711.607 41.4H732.405V62.1H711.607V41.4ZM690.809 41.4H711.607V62.1H690.809V41.4ZM670.011 41.4H690.809V62.1H670.011V41.4ZM670.011 62.1H690.809V82.8H670.011V62.1ZM690.809 62.1H711.607V82.8H690.809V62.1ZM711.607 62.1H732.405V82.8H711.607V62.1Z" fill="#B4B4B4"/>
</g>
<defs>
<filter id="filter0_d_15_1189" x="0" y="0" width="784" height="219.4" filterUnits="userSpaceOnUse" color-interpolation-filters="sRGB">
<feFlood flood-opacity="0" result="BackgroundImageFix"/>
<feColorMatrix in="SourceAlpha" type="matrix" values="0 0 0 0 0 0 0 0 0 0 0 0 0 0 0 0 0 0 127 0" result="hardAlpha"/>
<feOffset dx="10" dy="10"/>
<feComposite in2="hardAlpha" operator="out"/>
<feColorMatrix type="matrix" values="0 0 0 0 0.348378 0 0 0 0 0.348378 0 0 0 0 0.348378 0 0 0 1 0"/>
<feBlend mode="normal" in2="BackgroundImageFix" result="effect1_dropShadow_15_1189"/>
<feBlend mode="normal" in="SourceGraphic" in2="effect1_dropShadow_15_1189" result="shape"/>
</filter>
</defs>
</svg>
